<svg width="64" height="34" viewBox="0 0 64 34" fill="none" xmlns="http://www.w3.org/2000/svg">
<path d="M62.1108 24.595C62.1362 21.9657 63.6941 19.3656 62.1167 16.6381C61.2802 17.9939 60.478 19.3709 59.5981 20.7068C57.8561 23.3533 57.4101 26.2028 57.7708 29.2009C57.8725 30.046 57.3981 30.7451 56.8639 31.3911C55.8058 32.6713 55.3808 34.1173 55.2446 35.6773C55.1413 36.858 54.7537 37.7176 53.6164 38.7245C52.4311 39.7752 51.5272 39.7486 50.2925 39.6996C49.7508 39.6783 49.0848 39.8601 49.3781 38.8651C49.6176 38.0559 48.6403 38.4963 48.2408 38.4366C47.6421 38.3478 46.9717 38.4008 46.7203 37.8118C46.4569 37.1963 47.0705 36.85 47.488 36.5078C50.5709 33.9833 51.7083 28.9542 49.9648 25.6497C49.5787 24.9187 49.2435 24.7436 48.2168 24.8696C46.5093 25.0792 45.2088 25.8208 43.9576 26.6884C43.1989 27.2137 42.6407 27.2323 41.9897 26.6552C40.7251 25.5342 39.1837 25.1986 37.4357 25.3207C36.2235 25.4056 35.0173 25.1628 33.7811 25.2437C31.7563 25.3764 31.1532 25.7757 30.8299 27.5851C30.7371 28.1038 30.7327 28.6849 30.4528 29.12C28.8665 31.5901 28.9308 34.2751 29.0206 36.9747C29.0401 37.5744 29.1777 38.231 27.997 37.7163C27.0392 37.2984 27.2382 38.3239 27.0048 38.6675C26.7908 38.9805 26.9958 39.4846 26.2535 39.4011C25.1969 39.2817 24.094 39.5974 23.0793 39.222C22.8084 39.1212 23.0988 38.7776 23.2275 38.5361C25.5337 34.2022 26.1203 30.4745 25.1894 25.2583C23.8665 29.189 23.44 33.2629 23.0344 37.5929C22.6139 37.1339 22.4089 36.9097 22.0691 36.537C21.6756 37.3144 21.6696 38.3517 20.8884 38.633C20.1176 38.9102 19.1165 38.8214 18.241 38.572C17.7202 38.4234 17.2772 38.4605 17.8713 37.6805C20.7402 33.9077 20.5771 29.7077 19.5939 25.4838C19.3529 24.4517 18.3143 23.9649 17.3056 23.3202C14.8169 21.7296 11.8432 21.0079 9.41583 19.4134C8.96537 19.1175 8.53288 18.7952 8.01956 18.7991C5.52631 18.8164 3.70501 17.2868 1.50958 16.6196C-0.397022 16.0398 0.328798 14.4705 0.372198 13.3044C0.414102 12.1888 1.5006 12.4488 2.41649 12.4315C4.67478 12.3877 6.64723 9.9256 6.12194 7.97551C5.85855 6.99516 5.66998 6.00951 5.7029 4.98538C5.7448 3.68002 5.81963 2.36139 5.12224 0.805302C6.91211 2.36537 8.44757 3.64951 9.90371 4.99997C10.5562 5.60623 11.1414 6.2934 12.144 5.69511C13.0689 5.14325 14.9381 5.67653 14.7376 3.74369C14.6118 2.52589 17.3805 0.246807 18.6884 0.254766C19.5041 0.260073 20.0234 0.704481 20.0473 1.46196C20.1012 3.14673 21.4451 4.46005 21.704 6.09574C21.7968 6.67944 22.4882 6.75505 23.1078 6.8824C26.695 7.61601 30.2687 7.06945 33.7721 6.60117C38.4459 5.97634 43.142 5.85562 47.8307 5.53459C51.2653 5.29978 54.3676 6.01482 57.4445 7.36794C61.0003 8.93198 62.6331 11.6143 63.0656 14.7902C63.4038 17.2776 63.5519 19.8445 63.1853 22.3889C63.0671 23.2074 62.8037 23.9211 62.1093 24.5963L62.1108 24.595Z" fill="white"/>
</svg>
