<svg width="38" height="33" viewBox="0 0 38 33" fill="none" xmlns="http://www.w3.org/2000/svg">
<path id="Vector" d="M0.222549 23.6215C2.21745 23.5764 3.56882 23.1201 4.7062 21.8956C5.53828 20.9989 6.81333 20.39 7.97465 19.7797C9.02822 19.2252 8.63464 18.5341 7.96568 18.4067C6.47512 18.1228 7.12163 17.0443 7.11863 16.5296C7.11414 15.9061 8.19466 16.0361 8.88457 15.9844C12.8579 15.6832 16.6142 14.5915 20.2838 13.3047C20.9377 13.0752 21.285 13.3644 21.716 13.4201C23.7917 13.6867 23.7722 13.7345 23.7558 11.8335C23.7408 10.0837 23.7363 8.33394 23.7677 6.58549C23.8126 4.08222 26.5513 0.971376 29.2361 0.33196C31.6111 -0.234493 32.9086 0.160829 33.8829 2.11755C34.5563 3.47067 35.6623 4.3953 36.849 5.30268C37.1229 5.51096 37.5105 5.59984 37.3414 5.99384C37.1349 6.47804 36.7143 6.34936 36.2968 6.23395C35.8449 6.10925 35.3749 6.03231 34.9215 5.91026C32.6018 5.28942 30.5995 6.15303 30.0622 8.21587C29.6836 9.66451 30.8135 10.7696 31.9583 11.5416C35.5111 13.9388 36.9344 17.1027 36.2519 20.902C35.8344 23.2236 33.9308 24.8738 31.7488 26.0611C29.2107 27.4408 26.5663 28.6838 23.6779 29.4479C23.1182 29.5965 22.8025 30.0356 22.985 30.5861C23.2843 31.4909 23.7737 32.3346 23.8366 33.3176C23.8725 33.8854 24.5519 33.7487 25.0054 33.7633C26.3732 33.8071 27.759 33.6505 29.0924 34.079C29.5204 34.217 30.1385 34.1427 30.1759 34.7105C30.2119 35.2663 29.712 35.6471 29.2092 35.7306C26.9614 36.1008 25.0248 37.2403 22.8399 37.7152C20.2359 38.2803 17.8219 37.2788 15.3751 36.7388C14.8229 36.6168 14.3829 35.915 15.1476 35.5144C15.7956 35.1761 15.64 34.7715 15.6729 34.3165C15.9094 31.073 15.4185 30.4866 11.7998 29.8074C10.8121 29.6217 9.7795 29.2503 8.82919 29.3657C6.36588 29.6628 5.39911 28.0563 4.24677 26.7364C3.77835 26.2004 3.27551 25.6897 2.62152 25.6194C1.30905 25.4761 0.966335 24.6125 0.224047 23.6255L0.222549 23.6215ZM21.499 32.3783C21.2296 31.8809 21.6097 30.9337 20.7836 30.667C19.8408 30.3633 18.7393 30.7427 17.9387 31.1247C17.3086 31.4245 17.6573 32.3531 17.8923 33.0151C18.0853 33.559 18.3008 34.1162 18.3472 34.6773C18.431 35.6749 19.6821 35.3871 19.7016 35.3035C19.965 34.1745 21.6696 33.7859 21.4975 32.3797L21.499 32.3783Z" fill="white"/>
</svg>
