<svg width="44" height="38" viewBox="0 0 44 38" fill="none" xmlns="http://www.w3.org/2000/svg">
<path id="Vector" d="M0.953674 5.36247C3.01143 4.79071 4.98538 4.39273 6.23649 2.37101C7.80338 -0.161444 12.4262 0.11316 14.2535 2.69072C15.8653 4.96317 17.5265 7.30592 17.9575 9.98961C18.2762 11.9755 19.1188 13.716 19.8626 15.5454C20.313 16.6517 20.952 17.0245 22.0939 16.7764C25.0945 16.1264 27.8422 16.9091 30.6033 17.8019C32.2689 18.3405 34.0738 18.4373 35.7993 18.6735C38.0516 18.9812 40.0285 19.7175 41.9306 20.6885C43.5155 21.4978 43.6247 23.0074 43.6217 24.3977C43.6188 25.2255 42.6355 25.1817 41.9306 25.1432C40.4476 25.0623 39.5152 25.3024 38.6292 26.7099C37.4305 28.6149 34.9433 29.5382 32.8062 30.5902C30.7395 31.6064 30.4491 31.9048 30.9684 34.0539C31.6613 36.9273 30.7889 37.8957 27.5324 37.8626C26.5746 37.8533 25.6168 37.8413 24.6605 37.8095C24.2744 37.7976 23.7551 37.9528 23.6488 37.4155C23.5605 36.9724 23.9616 36.7482 24.3043 36.5466C25.1229 36.0664 26.0523 36.3463 26.9308 36.3038C27.7224 36.2653 28.6892 36.264 28.8718 35.5158C29.0918 34.6137 29.2055 33.6228 28.8613 32.6889C28.752 32.3904 28.3689 32.4647 28.0816 32.4275C27.1971 32.3134 26.3082 32.2166 25.4342 32.0587C23.1879 31.6541 22.6641 32.1343 23.1759 34.172C23.8045 36.6779 23.3645 37.2523 20.5001 37.1727C18.7087 37.1236 16.7752 37.6821 15.0152 36.4312C16.1691 35.7798 17.3708 35.7267 18.574 35.6737C20.099 35.6074 22.2301 32.7671 21.2873 31.8266C20.4013 30.9431 18.9601 30.4562 17.6956 29.9189C13.0997 27.9649 9.85065 22.6254 10.6064 18.1349C11.1302 15.0253 11.015 11.8959 11.0404 8.76782C11.0479 7.93074 10.4897 7.51022 9.84768 7.13214C9.07397 6.67712 8.4903 7.18255 7.93209 7.56991C6.89948 8.28627 6.09283 9.24539 4.90009 9.79195C4.54241 9.95512 4.17726 10.3319 3.78666 9.98032C3.32124 9.56245 3.82405 9.17641 4.05901 8.87793C4.68756 8.07534 5.81448 7.63359 6.24698 6.31761H0.95667V5.36114L0.953674 5.36247Z" fill="white"/>
</svg>
