<svg width="60" height="61" viewBox="0 0 60 61" fill="none" xmlns="http://www.w3.org/2000/svg">
<path id="Vector" d="M59.5434 30.075C58.9164 29.9145 58.9164 29.3905 58.6754 28.9806C58.2444 28.2496 57.6668 27.658 56.5309 28.0493C55.5701 28.3796 54.9191 28.0108 54.5719 27.1738C54.4492 26.8766 54.3399 26.5662 54.1588 26.2956C53.7697 25.7132 53.4779 24.9703 52.8958 24.6214C51.8063 23.9687 51.9799 25.3351 51.3858 25.562C51.0595 25.6867 50.7347 25.814 50.4145 25.952C48.4944 26.7811 47.1161 27.979 46.0057 29.6903C45.3891 30.6401 44.2667 31.7929 42.6175 32.0344C41.9171 32.1365 41.3454 32.2639 41.4966 33.4644C41.6028 34.3055 41.8168 35.258 41.7869 36.1508C41.7794 36.3989 40.8381 36.6881 40.2844 36.8167C40.1197 36.8552 39.7935 36.2994 39.4972 36.7663C39.3161 37.0542 39.3849 37.4097 39.6064 37.675C40.0674 38.2282 40.449 38.9499 41.0775 39.255C42.5501 39.97 42.8405 41.148 43.068 42.411C43.7953 46.4358 45.2754 50.2975 46.3334 54.2508C46.5459 55.0467 47.2658 55.7246 47.6249 56.5033C48.2325 57.8193 48.4855 59.1538 47.3047 60.3756C47.1909 60.4924 47.0802 60.625 47.0203 60.7683C45.9009 63.4493 45.859 63.4745 42.628 63.379C41.6118 63.3485 40.5942 63.3405 39.578 63.3034C39.141 63.2875 38.7399 63.1946 38.7205 62.6905C38.7055 62.3177 38.9195 62.0829 39.2907 61.9755C40.1362 61.7327 40.9833 61.4873 41.8438 61.2883C43.8447 60.8253 44.5181 59.9909 44.2547 58.1788C43.6292 53.8753 42.4978 49.6634 40.7468 45.6279C40.0629 44.0533 38.6471 42.7307 37.4484 41.3033C38.3448 44.7006 35.7843 47.5435 35.6705 50.8056C35.5822 53.3182 35.3622 55.8559 34.8459 58.3672C34.4673 60.2098 34.2054 61.478 31.6418 62.1944C28.9765 62.9399 26.5326 62.8378 23.9481 62.6136C23.6113 62.5844 23.1474 62.6573 23.0412 62.266C22.9124 61.7924 23.4422 61.6743 23.761 61.4767C25.1573 60.6091 26.8798 60.8028 28.4138 60.5759C30.7903 60.2244 31.4637 58.7452 31.7451 57.2236C32.206 54.7297 32.7418 52.2489 33.3673 49.7921C34.1665 46.6547 33.4332 43.6978 32.3826 40.7607C31.9755 39.6211 32.0998 38.333 31.1779 37.3354C30.3069 36.3922 29.391 35.8921 28.2596 37.0436C28.1534 37.1524 27.9483 37.3514 27.9438 37.3474C26.3216 36.1203 25.3773 37.7679 24.2025 38.1314C21.9666 38.8239 20.0136 37.9258 17.9619 37.6167C17.5638 37.557 17.0774 36.9799 16.9622 36.5687C15.9939 33.1301 12.4486 32.114 9.67099 30.3961C7.2825 28.9196 4.63514 27.5625 3.60551 25.0472C2.61779 22.6355 2.86023 20.0526 3.86142 17.6011C4.40167 16.2772 5.00476 14.9718 5.6378 13.681C6.48934 11.9445 6.35318 10.1444 5.96557 8.38398C5.70218 7.19138 6.22146 5.99479 5.56597 4.79158C4.80572 3.39468 3.32715 3.05507 2.02365 2.41964C1.71836 2.27106 1.31727 2.26973 0.998505 1.66348C3.23285 1.90625 4.29542 -0.405993 6.70935 0.0622921C7.78986 0.271893 8.46479 0.502719 8.71321 1.47643C9.44652 4.34717 9.35672 7.22587 9.15768 10.1497C8.87783 14.2714 6.5492 18.0402 6.7228 22.2176C6.8081 24.2685 8.33907 25.3988 10.6138 25.6615C14.0394 26.0568 16.5177 24.3667 19.189 23.056C21.9816 21.687 24.3641 19.8457 26.7705 17.9832C28.6622 16.5186 31.1749 15.8301 33.7998 15.7333C38.1608 15.5728 42.5202 15.5422 46.8482 16.0888C48.252 16.2666 49.5839 16.7746 50.7153 17.6051C53.0289 19.3018 55.5701 20.7703 57.4288 22.9181C58.4016 24.0417 58.9867 25.2515 58.8625 26.7347C58.8041 27.4338 58.9298 28.2138 59.5434 28.8002V30.075Z" fill="white"/>
</svg>
