<svg width="28" height="26" viewBox="0 0 28 26" fill="none" xmlns="http://www.w3.org/2000/svg">
<path id="Vector" d="M14.0925 26.1703C10.6849 26.1703 7.27579 26.1518 3.86815 26.1823C2.92981 26.1902 2.12916 25.9223 1.32102 25.5601C0.610163 25.2417 0.496429 24.6792 0.500918 24.0929C0.505408 23.4959 0.863078 23.0847 1.58142 23.0436C2.92532 22.9666 2.5422 22.0062 2.36711 21.5087C1.1983 18.1803 3.488 15.8853 5.29732 13.4497C6.78788 11.4425 8.82917 10.1053 11.4332 9.32795C13.0255 8.8517 14.5804 8.77211 16.1892 8.92599C16.8268 8.98701 17.4912 8.98569 17.8145 8.50944C18.1691 7.98544 17.6424 7.49726 17.2802 7.11255C15.8705 5.61881 14.9576 3.96322 14.995 1.97467C15.0189 0.683896 15.5532 0.376127 16.8866 0.872271C18.7318 1.55944 19.5265 3.06645 20.3182 4.51906C20.5501 4.94357 20.4618 5.43176 21.2101 5.46492C21.9255 5.49543 22.4508 5.38798 22.7651 4.71673C23.4011 3.35963 24.4367 2.22805 25.4947 1.11371C25.7836 0.808596 26.0724 0.510113 26.5289 0.764818C26.9449 0.996971 26.6545 1.32862 26.5423 1.61251C26.2864 2.2559 26.1398 2.96032 25.7432 3.52545C23.7977 6.29404 26.5708 8.43648 27.0048 10.8761C27.1694 11.8047 27.5196 12.6006 27.1978 13.5889C26.7863 14.8479 26.4855 16.1373 26.3972 17.4798C26.3104 18.7932 25.5501 19.9751 24.751 21.1094C23.5762 22.7743 23.7931 23.9576 25.4049 25.1833C25.6728 25.3863 25.7971 25.584 25.7177 25.8453C25.5591 26.368 25.0398 26.169 24.6732 26.1716C21.1458 26.1876 17.6184 26.1809 14.0911 26.1809C14.0911 26.177 14.0911 26.1743 14.0911 26.1703H14.0925Z" fill="white"/>
</svg>
