<svg width="72" height="52" viewBox="0 0 72 52" fill="none" xmlns="http://www.w3.org/2000/svg">
<path id="Vector" d="M10.1071 0.0154991C10.7057 0.421435 11.6022 0.576646 11.038 1.64853C10.6219 2.4405 11.6321 2.55724 12.2128 2.58245C14.2211 2.67398 16.0693 3.48055 18.2962 2.68725C20.3689 1.94834 22.6347 2.98175 24.6565 3.89577C25.3539 4.2115 24.6311 4.7806 25.0711 5.23562C25.779 4.45161 25.3375 3.55218 25.6667 2.77746C26.5078 3.15421 26.4569 4.02312 27.0061 4.6705C28.1465 3.81617 29.0923 3.41156 29.1417 5.3643C29.1761 6.73202 30.517 5.90024 31.2443 6.17352C31.6185 6.5715 30.2072 6.88059 30.936 6.9257C32.6571 7.03315 33.787 8.05197 34.9528 8.79884C37.443 10.3934 40.1637 10.1533 42.856 10.0604C46.4313 9.93573 49.9991 9.43428 53.5803 9.60541C55.8566 9.71419 57.8125 10.7423 59.785 11.7452C62.1181 12.9325 64.9002 13.2708 67.0777 14.868C69.5694 16.6947 71.4087 18.7642 71.4895 21.7397C71.5493 23.9193 71.6077 26.0989 71.5912 28.2824C71.5763 30.2591 70.5796 31.9359 70.168 33.7334C69.758 35.5256 67.8888 36.5869 67.8499 38.3791C66.6945 37.9427 66.8083 37.9652 67.1256 36.6784C67.6044 34.727 67.3321 32.7252 66.0136 31.1426C64.354 29.1474 64.5994 27.0991 65.0199 24.9368C65.0783 24.6396 65.0274 24.3266 65.0274 24.0122C64.1803 23.9153 64.2941 24.7046 63.8077 24.9978C62.6943 25.6677 63.5787 24.2045 62.9038 24.572C61.8891 26.1771 60.7443 27.8327 59.7775 29.5666C59.0247 30.9157 60.6141 31.7249 61.313 32.2768C63.884 34.3052 64.5545 37.1931 66.0016 39.6964C66.7963 41.0721 67.6374 42.4398 68.447 43.8115C69.4332 45.483 70.6454 47.0683 69.544 49.082C69.1414 49.8169 69.987 50.4444 69.9002 51.2019C69.5021 51.4606 69.0217 51.316 68.5757 51.3213C66.2471 51.3478 66.265 51.3399 66.4895 49.3354C66.6167 48.2051 66.2156 47.1465 65.7906 46.1025C64.2656 42.3589 61.8218 39.1353 58.7165 36.2897C58.48 36.0735 58.2256 35.7551 57.832 35.8453C57.374 35.9501 57.4354 36.3773 57.4863 36.6453C58.1118 39.9219 55.6365 42.3191 54.4917 45.093C53.5997 47.2513 52.0912 49.2001 51.7171 51.5375C51.6782 51.7763 51.4971 52.1159 51.2801 52.1955C49.6085 52.8203 47.9114 53.607 46.0437 53.1387C44.5501 52.7646 45.6486 52.0032 46.0661 51.6636C47.1227 50.8079 48.1852 50.008 49.0009 48.9188C51.0197 46.2245 52.3576 43.3817 52.8111 40.113C53.2002 37.3032 52.6599 34.5466 52.7946 31.7661C52.8425 30.7791 49.8524 27.3087 48.8527 27.2716C48.1344 27.2451 47.2843 27.6178 46.6767 28.0264C44.2418 29.6621 41.5092 30.3294 38.4966 30.3201C36.6439 30.3134 34.7627 30.2299 32.9474 30.4846C30.6517 30.8056 28.5446 32.0393 27.5793 33.7254C26.8864 34.934 27.4925 36.8363 27.8232 38.3778C28.4877 41.4674 28.3366 44.687 29.8346 47.6533C30.33 48.635 29.5248 49.4627 28.591 50.065C28.0043 50.4431 27.4401 50.7602 27.9519 51.5972C28.4593 52.4263 28.0028 52.9225 26.9343 52.8429C25.8313 52.762 24.3168 53.4306 23.7347 52.5948C23.2333 51.8758 24.5637 51.0215 25.098 50.2428C26.4344 48.2953 26.0124 46.271 25.5575 44.2413C25.107 42.2342 24.5952 40.2377 24.1253 38.2332C24.04 37.8657 24.034 37.3722 23.5611 37.3364C22.9415 37.2913 23.2034 37.8604 23.0477 38.1549C21.8819 40.3637 22.1678 42.5539 22.9041 44.8117C23.3126 46.0654 22.931 47.3866 24.1627 48.5952C25.2492 49.6617 24.0789 51.5641 22.4551 51.9541C21.424 52.2008 20.8598 51.6967 20.5725 50.926C20.3525 50.333 20.2702 49.7002 20.1355 49.0833C19.4815 46.0959 19.7194 43.0567 19.4905 40.044C19.4246 39.1777 19.0699 38.3818 19.2046 37.424C19.4246 35.8453 20.782 35.0109 21.5048 33.7918C21.8789 33.1616 21.8819 32.7411 21.6515 32.0632C20.5844 28.9166 18.0822 26.339 17.2381 23.1127C17.1304 22.7028 16.8221 22.2743 16.9867 21.8883C18.3127 18.7575 15.1969 17.3275 13.7437 15.2925C13.392 14.799 12.5929 14.3254 11.7488 15.2845C10.785 16.379 9.3259 17.0383 8.33369 18.2269C7.38787 19.3598 6.64112 20.4954 6.18916 21.814C5.97066 22.4521 5.75065 23.0477 4.78688 22.9708C3.8216 22.8952 2.76653 23.248 2.08261 22.2014C1.4346 21.2104 1.23855 20.1306 1.59024 19.1462C2.13498 17.618 2.22181 16.0261 2.70819 14.5058C3.03893 13.4724 2.93716 12.4284 2.44779 11.5502C1.85366 10.4849 2.07064 9.65051 2.68872 8.74312C3.14516 8.0732 2.39241 7.90074 2.55254 7.325C2.99402 5.73973 1.59323 5.47441 0.877879 4.70764C1.63363 4.1518 0.502255 3.59596 0.850951 3.07196C1.27148 2.61031 2.75458 4.12925 2.40588 2.36887C2.63486 2.33438 2.92519 2.20172 3.08083 2.27999C4.85274 3.17145 4.70009 1.62863 5.28674 0.966663C5.66686 1.31688 5.80451 1.99477 6.60517 1.95232C6.71591 1.00115 6.71444 1.11922 8.16909 1.12585C8.69288 1.12851 9.22113 0.409496 9.74642 0.0208056C9.86614 0.0208056 9.98589 0.0208056 10.1056 0.0208056L10.1071 0.0154991Z" fill="white"/>
</svg>
