<svg width="59" height="45" viewBox="0 0 59 45" fill="none" xmlns="http://www.w3.org/2000/svg">
<path d="M11.248 47.9999C9.99834 47.996 8.72028 47.8739 9.42067 49.4618C9.58828 49.8413 9.30843 49.8731 9.00164 49.95C7.32401 50.3692 6.43805 49.5202 5.61345 48.191C3.11272 44.1608 4.25159 39.8348 3.83855 35.6348C3.6874 34.1013 4.89062 32.5611 4.3773 31.3141C3.86399 30.0671 2.41683 29.0735 2.23575 27.5638C1.87358 24.5459 0.451861 21.7016 0.3052 18.6611C0.166021 15.7625 2.07562 13.6559 4.19173 11.7297C8.08725 8.18503 13.1695 8.53392 18.153 8.36943C20.3574 8.29646 22.5304 8.56841 24.7244 8.46229C26.7971 8.36279 28.6229 9.31396 30.5549 9.77561C33.7695 10.5437 36.815 10.0582 39.7018 8.97568C40.9634 8.50341 41.3735 6.98845 41.8419 5.78656C42.0619 5.22143 41.4573 5.21215 41.119 5.09541C39.5357 4.54752 38.2965 3.66667 37.3762 2.37988C37.0245 1.88771 36.782 1.46188 37.0963 0.931242C37.4151 0.393973 38.0227 0.559797 38.5405 0.533265C39.7961 0.466936 40.8556 0.718987 41.6563 1.7073C42.213 2.3958 43.081 2.64785 44.0343 2.31487C46.3091 1.52157 48.5793 1.2337 50.9319 2.10925C52.1561 2.56427 53.274 2.26579 54.4084 1.65158C55.4979 1.06125 56.752 0.85032 57.9612 1.5229C58.699 1.93414 58.9818 2.44621 58.1902 3.03123C56.7849 4.06995 55.4305 5.23072 53.4491 5.29307C52.7337 5.31562 52.3596 5.45624 52.3476 6.18188C52.3207 7.85206 52.4584 9.49968 51.7266 11.1672C51.3494 12.0282 51.8987 13.2261 52.0887 14.2635C52.9418 18.8919 51.4916 23.3095 50.5802 27.7801C50.4904 28.2192 50.1881 28.4102 49.8723 28.6331C48.1513 29.8549 47.412 31.9973 45.0295 32.6367C44.6778 32.7309 44.2648 33.4804 44.3396 33.8545C44.9023 36.6497 44.2154 39.4355 44.3531 42.2213C44.4713 44.5972 45.2151 46.8073 46.5814 48.833C47.2803 49.8691 46.788 49.9938 45.7553 49.9514C44.5042 49.8983 43.0705 50.1052 43.322 48.3037C43.3399 48.1751 43.2082 47.988 43.084 47.8912C41.1295 46.3789 41.6383 44.3399 41.6294 42.4336C41.6174 39.7791 41.5994 37.1418 40.5563 34.5934C40.3363 34.0548 40.4965 33.4313 39.4654 33.5162C38.322 33.6104 38.7829 34.3507 38.7201 34.8322C38.5061 36.4626 39.2484 38.1142 38.6901 39.7313C37.4809 43.2309 37.8042 46.7198 38.6617 50.214C38.7829 50.7062 39.0074 51.1785 39.2124 51.7383C38.2726 51.8192 37.3911 51.985 36.5231 51.9426C35.8183 51.9081 34.9473 51.656 34.8814 50.9264C34.7243 49.174 33.9805 47.4706 34.9488 45.6333C35.938 43.7549 35.9709 41.696 35.6641 39.5748C35.3573 37.4589 35.0251 35.5141 33.747 33.5786C32.7324 32.0411 31.3615 32.3077 30.1224 32.2719C27.7429 32.2029 25.3694 32.1061 23.0123 31.9907C20.3036 31.858 17.9375 30.948 15.3739 30.6137C15.0252 30.5686 14.4431 30.4001 14.3757 30.5473C13.7113 31.9907 11.7583 31.7426 10.7646 32.8291C9.56883 34.1358 9.09292 35.5791 8.89688 37.1737C8.60804 39.5177 9.23061 41.8207 9.34584 44.1475C9.41169 45.4648 10.9142 46.4744 11.2465 47.9986L11.248 47.9999Z" fill="white"/>
</svg>
