<svg width="90" height="45" viewBox="0 0 90 45" fill="none" xmlns="http://www.w3.org/2000/svg">
<path id="Vector" d="M77.1148 51.9134C77.3303 49.6741 78.6697 47.671 78.7565 45.3866C78.8553 42.7971 79.2399 40.2155 78.9316 37.6194C78.8957 37.3236 79.0333 36.9123 78.5694 36.8181C78.0336 36.7107 77.899 37.1551 77.6999 37.4655C76.8798 38.7404 77.1387 40.1426 77.1223 41.5076C77.1118 42.3036 77.1731 43.0995 77.1836 43.8955C77.1896 44.3651 77.2689 44.8599 76.4623 44.9382C75.6422 45.0178 75.2396 45.5431 75.1184 46.217C74.846 47.7386 73.4856 48.1061 72.1343 48.5332C71.3665 48.776 70.8233 48.4656 70.3983 48.0238C69.9553 47.5635 70.325 47.1151 70.7051 46.7596C72.6267 44.9607 73.3031 42.6909 73.4812 40.3469C73.6173 38.548 74.0229 36.6364 72.5473 34.9941C72.3019 34.7195 72.2765 34.3321 71.7527 34.3109C71.2079 34.2897 70.8278 34.4595 70.6467 34.9344C70.512 35.2859 70.3923 35.6428 70.2262 35.9824C69.9972 36.452 69.8745 37.033 69.0349 36.9229C68.2567 36.8195 68.125 36.3711 68.1355 35.7754C68.152 34.7951 67.6446 34.1981 66.5028 34.0137C65.3295 33.8253 64.3268 33.2907 63.372 32.6646C62.5519 32.1273 61.7258 31.7943 60.5854 32.1154C58.9093 32.5863 57.2795 31.5197 55.5406 31.8142C52.1389 32.39 48.8256 31.9389 45.5481 31.0382C43.7672 30.5487 43.1312 31.0581 43.4425 32.6487C43.8885 34.9224 43.7163 37.2042 43.5966 39.4793C43.5173 40.9757 43.6191 42.4362 43.9244 43.9008C44.3673 46.0273 42.3021 48.2653 40.0857 48.0941C39.6487 48.0596 39.2417 48.0437 39.0576 47.6192C38.9154 47.2889 38.9962 47.0063 39.2925 46.7596C41.1917 45.1796 40.9822 43.0199 40.6739 41.1494C40.418 39.5934 39.6233 38.0505 39.3315 36.4321C39.2476 35.9731 38.8825 35.5765 38.2884 35.2912C37.7032 36.1111 37.9157 37.0198 37.9277 37.8688C37.9561 39.9157 37.5401 41.9985 38.5503 43.9804C38.7897 44.45 38.8196 45.0271 38.447 45.5152C37.8648 46.2767 37.6224 47.0926 37.5446 48.0278C37.4383 49.292 34.0621 51.4438 32.8005 51.0684C31.8846 50.7964 31.8338 50.0615 32.1376 49.2523C32.6389 47.9164 33.9948 46.8909 34.0861 45.4556C34.2686 42.5888 34.6353 39.6756 32.8574 37.0198C32.2199 36.0686 32.2363 34.9835 32.2528 33.9394C32.2678 32.9564 31.9789 32.4576 30.7592 32.4749C28.9649 32.5001 27.3561 32.1021 26.3878 30.5659C25.225 28.7233 23.2915 27.3609 22.5656 25.1893C22.1661 23.994 21.2936 22.8836 21.0017 21.5942C20.8955 21.1246 20.3582 21.0211 19.9467 20.8142C19.5351 20.6072 18.941 20.4135 18.8063 20.0898C18.1808 18.5749 16.4702 17.8373 15.6561 16.463C15.2849 15.8355 14.9647 15.1138 13.7255 15.9177C12.7348 16.5611 11.2473 16.5624 9.9722 16.1804C9.19549 15.9482 8.74803 15.9854 8.19879 16.6381C7.3278 17.6715 3.8169 18.291 2.54483 17.7285C1.51521 17.2722 1.61098 16.0663 0.723529 15.4494C-0.732611 14.4386 0.762448 13.8297 1.25631 13.1425C2.19464 11.8385 3.54153 10.6896 4.11621 9.28213C4.6385 8.00064 4.21199 6.46445 3.14195 5.3143C2.71095 4.85132 2.09287 4.51039 2.5523 3.86832C2.98331 3.26605 3.7301 3.3735 4.34219 3.58178C5.09944 3.83913 5.79833 3.84577 6.56456 3.66004C6.27123 2.49795 4.98121 2.58285 4.206 1.98191C6.08716 0.872881 7.80071 2.18753 9.78813 2.18355C9.20148 1.74976 8.59836 1.47648 8.92012 0.876861C9.19698 0.359491 9.76867 0.630115 10.1982 0.610216C11.3415 0.557153 12.648 0.307753 12.7812 1.89568C12.8396 2.59877 13.3843 2.64255 13.9321 2.42101C14.9183 2.02171 15.9389 2.25651 16.9401 2.2008C17.6585 2.161 18.4187 2.12651 18.8632 2.77919C19.3481 3.49024 18.5549 3.92006 18.1613 4.73193C22.1182 4.69876 25.7323 5.82504 29.6712 5.49472C35.1351 5.03572 40.6559 4.99857 46.1662 5.03572C51.0539 5.06888 55.8892 4.26232 60.7515 3.94659C63.9931 3.73566 67.0744 2.97818 70.2441 2.58816C72.7628 2.27906 75.1513 3.22227 77.5847 3.68923C79.8056 4.11639 81.793 4.81948 83.4377 6.31853C84.6469 7.4196 84.5826 8.83507 84.9402 10.102C86.2557 14.7623 86.8468 19.5552 87.7373 24.2872C88.1802 26.6419 88.517 29.0828 88.6906 31.5131C88.7998 33.0453 89.1784 34.6027 89.3565 36.1615C89.4523 36.9932 89.5691 37.9059 88.4377 38.1262C87.2883 38.3503 87.206 37.2665 86.9007 36.6642C86.2931 35.465 86.2512 34.2286 86.3694 32.8543C86.567 30.558 86.0192 28.2378 85.3982 25.968C84.4075 22.3477 84.59 18.5112 82.9079 15.005C82.7538 15.0621 82.5727 15.1085 82.5772 15.1311C83.0591 18.0323 81.7226 20.5913 80.5942 23.1702C79.6664 25.2941 80.4476 27.0982 81.7211 28.8148C82.1327 29.3693 82.5113 29.9225 82.4589 30.546C82.0594 35.3257 83.2102 40.0351 83.2222 44.7976C83.2297 47.6829 81.7855 49.9222 79.6305 51.9121H77.1163L77.1148 51.9134Z" fill="white"/>
</svg>
