<svg width="38" height="33" viewBox="0 0 38 33" fill="none" xmlns="http://www.w3.org/2000/svg">
<path id="Vector" d="M6.30944 36.8967C7.46029 36.0941 8.04693 35.3619 9.41328 35.3791C11.504 35.4043 12.7715 34.2595 13.4435 32.2072C14.2262 29.8127 14.1559 29.6482 11.5953 28.3734C10.7617 27.9582 10.0478 27.4182 9.45069 26.7775C7.62191 24.8208 5.19751 23.4955 3.05296 21.8744C1.16431 20.447 0.685412 18.2966 0.540247 16.1674C0.324744 12.9942 0.249922 9.78654 0.957789 6.681C1.3858 4.80255 2.74169 3.17085 5.08678 2.60705C5.93681 2.40275 6.81827 2.45714 6.38577 1.20882C6.23462 0.772375 7.03378 0.203269 7.69974 0.0798963C8.41359 -0.0527626 9.10051 0.0944886 9.68417 0.581347C11.1972 1.84559 11.7135 3.69883 13.0963 5.04532C13.5078 5.44728 13.1023 5.8479 12.6039 5.63432C11.3349 5.09175 10.6405 5.76035 10.1451 6.54038C9.67969 7.27266 8.81615 7.07234 8.20855 7.38542C8.26542 7.55124 8.28489 7.73034 8.33428 7.73697C13.2519 8.40557 18.002 10.2787 23.1576 9.27979C25.127 8.89773 27.1145 8.62047 28.9178 7.7635C29.9265 7.28327 30.4203 6.30425 30.9845 5.57463C32.1054 4.12201 33.0019 3.05278 35.0896 4.16844C35.2856 4.27324 35.5415 4.28518 35.7645 4.35019C38.2383 5.0745 38.2652 5.08644 37.1293 7.16653C36.8794 7.62288 36.7208 8.06065 36.8001 8.52629C37.1653 10.6767 36.1192 12.5472 35.335 14.4654C35.1494 14.9191 34.9279 15.3463 34.9848 15.8384C35.0791 16.6702 34.9579 17.2473 33.7412 17.3295C33.1829 17.3667 32.4407 17.8151 32.4212 18.4677C32.3209 21.9315 30.1988 24.6815 27.5664 26.7311C25.6209 28.2447 26.2435 29.5713 26.4186 31.077C26.5383 32.0958 26.5472 33.4502 28.4943 33.2274C28.7023 33.2035 29.0659 33.4476 29.1632 33.6439C29.3084 33.9411 28.9732 34.1905 28.6948 34.1891C26.6176 34.1852 26.5667 35.8116 26.0594 36.9153C25.6134 37.8863 25.3141 38.3095 24.2501 37.5467C23.4868 36.9989 22.5709 37.5268 21.7224 37.3106C21.1687 37.17 20.5446 37.2721 20.1645 36.7495C20.5416 36.1578 21.2106 36.3183 21.7643 36.3767C23.6844 36.5823 24.4356 35.598 24.8142 34.1586C25.2228 32.6025 24.8008 31.0756 24.4252 29.6018C24.1618 28.5671 22.7505 28.6135 22.0591 29.0194C20.6957 29.8207 19.6557 29.5686 18.5243 28.8019C17.6563 28.2129 17.0457 28.3283 16.6865 29.3206C16.3079 30.3686 15.6015 31.2892 15.1301 32.316C14.4073 33.8893 13.8356 35.1854 16.2435 36.2056C14.6692 36.2679 13.1891 35.7439 12.4992 37.2642C12.4737 37.3199 12.0667 37.3385 12.0233 37.2748C10.7587 35.3884 9.12746 36.9339 7.67281 36.898C7.34806 36.8901 7.02329 36.898 6.30795 36.898L6.30944 36.8967Z" fill="white"/>
</svg>
