<svg width="1728" height="1117" viewBox="0 0 1728 1117" fill="none" xmlns="http://www.w3.org/2000/svg">
<g clip-path="url(#clip0_103_44)">
<rect width="1728" height="1117" fill="white"/>
<path d="M1825.41 922.719C1837.18 941.986 1829.59 957.259 1817.45 966.557C1814.1 969.122 1810.64 971.566 1807.09 973.836C1783.58 988.819 1757.67 998.332 1731.24 1006.56C1698.37 1016.81 1664.76 1023.63 1630.47 1027.03C1628.55 1027.23 1626.62 1027.33 1624.12 1027.52C1624.8 1005.99 1619.12 986.446 1605.81 968.393C1616.35 963.115 1626.38 957.767 1636.68 953.014C1679.72 933.146 1724.23 918.022 1771.49 911.979C1775.67 911.442 1779.9 911.168 1784.13 910.982C1795.57 910.494 1806.95 910.577 1817.67 915.491C1820.25 917.9 1822.82 920.297 1825.41 922.706L1825.41 922.719Z" fill="#3DB54A"/>
<path d="M1495.32 943.311C1476.1 953.563 1462.41 968.166 1453.56 988.393C1445.67 983.354 1437.9 978.665 1430.42 973.549C1400.1 952.809 1371.88 929.559 1346.69 902.758C1330.38 885.416 1314.86 867.429 1305.15 845.325C1300.28 834.248 1301.37 823.633 1308.99 814.064C1317.02 803.988 1329.61 800.532 1342.34 804.947C1357.78 810.29 1371.53 818.848 1384.6 828.451C1427.14 859.67 1462.85 897.591 1493.62 940.291C1494.22 941.116 1494.62 942.074 1495.32 943.324L1495.32 943.311Z" fill="#3DB54A"/>
<path d="M1486.82 1096.7C1505.36 1108.39 1525.09 1112.8 1547.11 1110.44C1546.34 1122.98 1545.93 1135.08 1544.78 1147.11C1540.38 1193.43 1531.44 1238.75 1513.15 1281.75C1508.78 1292.01 1502.85 1301.79 1496.52 1311.01C1489.25 1321.58 1478.34 1325.35 1465.84 1322.36C1453.06 1319.28 1445.8 1310.5 1443.47 1297.73C1440.52 1281.62 1441.04 1265.42 1442.92 1249.28C1449.01 1196.92 1463.64 1146.97 1485.62 1099.12C1485.91 1098.5 1486.23 1097.91 1486.83 1096.7L1486.82 1096.7Z" fill="#3DB54A"/>
<path d="M1571.7 983.924C1592.92 1003.8 1594.06 1037.29 1574.26 1058.58C1554.32 1080.01 1520.6 1081.11 1499.21 1061.04C1477.93 1041.07 1476.83 1007.87 1496.76 986.465C1516.86 964.886 1550.17 963.748 1571.7 983.924Z" fill="#6ABD45"/>
<path d="M1751.8 1240.61C1739.86 1259.77 1722.81 1259.85 1709.05 1253.17C1705.25 1251.33 1701.52 1249.33 1697.89 1247.17C1673.95 1232.89 1653.82 1214 1634.61 1194.08C1610.7 1169.3 1589.53 1142.33 1571.1 1113.22C1570.06 1111.58 1569.1 1109.91 1567.81 1107.76C1587.36 1098.71 1602.27 1084.86 1612.43 1064.86C1621.88 1071.91 1631.16 1078.47 1640.03 1085.54C1677.1 1115.09 1710.59 1148.08 1737.2 1187.6C1739.55 1191.1 1741.7 1194.76 1743.76 1198.45C1749.33 1208.46 1754.36 1218.66 1754.78 1230.45C1753.79 1233.84 1752.8 1237.21 1751.81 1240.6L1751.8 1240.61Z" fill="#006838"/>
<path d="M1585.26 954.863C1567.48 942.288 1548.28 936.607 1526.24 937.776C1527.2 928.465 1527.9 919.413 1529.12 910.437C1534.05 874.031 1542.16 838.383 1554.81 803.839C1562.98 781.483 1572.09 759.539 1587.49 740.944C1595.2 731.623 1605.18 727.837 1617.15 730.35C1629.76 733.004 1638.5 742.705 1640.26 756.059C1642.42 772.261 1640.94 788.381 1638.22 804.372C1629.41 856.4 1611.55 905.328 1587.2 951.992C1586.73 952.895 1586.06 953.682 1585.25 954.869L1585.26 954.863Z" fill="#006838"/>
<path d="M1444.37 1016.1C1442.25 1037.92 1447.16 1057.53 1459.15 1076.15C1447.6 1081.08 1436.6 1086.15 1425.33 1090.53C1381.97 1107.37 1337.45 1119.72 1290.82 1122.67C1279.69 1123.38 1268.29 1122.46 1257.21 1120.94C1244.5 1119.19 1236.23 1111.13 1233.3 1098.62C1230.31 1085.82 1234.91 1075.39 1245.27 1067.58C1258.34 1057.72 1273.05 1050.91 1288.32 1045.34C1337.85 1027.29 1389.05 1017.95 1441.68 1016.12C1442.35 1016.1 1443.03 1016.12 1444.37 1016.11L1444.37 1016.1Z" fill="#006838"/>
<path d="M1583.25 1041.35C1575.01 1069.23 1545.59 1085.28 1517.67 1077.14C1489.58 1068.93 1473.47 1039.3 1481.8 1011.18C1490.1 983.194 1519.27 967.317 1547.35 975.518C1575.65 983.796 1591.62 1013.05 1583.25 1041.35Z" fill="#006838"/>
</g>
<defs>
<clipPath id="clip0_103_44">
<rect width="1728" height="1117" fill="white"/>
</clipPath>
</defs>
</svg>
