<svg width="44" height="44" viewBox="0 0 44 44" fill="none" xmlns="http://www.w3.org/2000/svg">
<path d="M31.8874 42.6993C30.2717 43.6103 29.0395 42.9439 28.3109 41.92C28.1099 41.6381 27.9192 41.3469 27.743 41.0484C26.5802 39.0752 25.8734 36.9206 25.2733 34.7276C24.5261 31.9989 24.0629 29.2204 23.8815 26.3952C23.8711 26.2367 23.868 26.0781 23.8597 25.8719C25.6257 25.99 27.2466 25.5796 28.7669 24.5381C29.1701 25.419 29.5805 26.2574 29.9411 27.1166C31.449 30.7076 32.5631 34.4053 32.9238 38.3031C32.9559 38.6482 32.9663 38.9964 32.9694 39.3436C32.9766 40.2846 32.9373 41.2184 32.503 42.0848C32.2978 42.29 32.0936 42.4941 31.8884 42.6993H31.8874Z" fill="#3DB54A"/>
<path d="M31.1432 15.5385C30.3566 13.9311 29.1969 12.7652 27.5615 11.9807C27.9978 11.3475 28.4051 10.7225 28.8466 10.1235C30.6364 7.69325 32.6262 5.44331 34.8989 3.45142C36.3695 2.16218 37.8909 0.939272 39.7336 0.205526C40.657 -0.162383 41.5255 -0.0421645 42.2893 0.610744C43.0935 1.29889 43.3412 2.34251 42.9422 3.37473C42.4592 4.62769 41.7172 5.73142 40.8912 6.77711C38.206 10.1805 34.9901 13.0036 31.396 15.4079C31.3266 15.4546 31.2468 15.4846 31.1421 15.5385H31.1432Z" fill="#3DB54A"/>
<path d="M18.5733 14.4006C17.5607 15.8899 17.142 17.4973 17.2726 19.3119C16.2456 19.2124 15.2528 19.144 14.2682 19.0155C10.4782 18.5212 6.78256 17.6569 3.30452 16.0318C2.47439 15.6442 1.68883 15.1292 0.949902 14.583C0.103193 13.956 -0.175588 13.0492 0.106302 12.0315C0.395448 10.991 1.13748 10.4199 2.1925 10.2655C3.52319 10.0696 4.85181 10.1588 6.17214 10.3588C10.4534 11.0096 14.5128 12.3538 18.3784 14.2959C18.4282 14.3208 18.4758 14.3488 18.5733 14.4016V14.4006Z" fill="#3DB54A"/>
<path d="M27.5896 21.6935C25.8972 23.3786 23.1436 23.3765 21.4522 21.6893C19.7505 19.9907 19.7567 17.2195 21.4657 15.5209C23.1664 13.8306 25.8951 13.8358 27.5958 15.5333C29.3099 17.2454 29.3079 19.9835 27.5896 21.6935Z" fill="#6ABD45"/>
</svg>
