<svg width="398" height="398" viewBox="0 0 398 398" fill="none" xmlns="http://www.w3.org/2000/svg">
<path d="M115.503 31.158C126 24.7471 134.32 28.8781 139.385 35.4951C140.783 37.3166 142.114 39.2024 143.351 41.1396C151.513 53.9472 156.696 68.0622 161.18 82.4561C166.763 100.367 170.476 118.673 172.332 137.353C172.437 138.401 172.494 139.451 172.597 140.816C160.867 140.442 150.22 143.537 140.386 150.791C137.51 145.046 134.596 139.585 132.008 133.975C121.184 110.526 112.945 86.279 109.653 60.5319C109.36 58.2523 109.211 55.947 109.11 53.647C108.844 47.4125 108.889 41.2153 111.566 35.3732C112.878 33.9658 114.184 32.5656 115.496 31.1583L115.503 31.158Z" fill="#3DB54A"/>
<path d="M126.721 210.982C132.306 221.452 140.261 228.911 151.281 233.731C148.536 238.029 145.981 242.264 143.194 246.336C131.895 262.856 119.23 278.227 104.629 291.953C95.1816 300.837 85.3824 309.293 73.3409 314.582C67.3067 317.234 61.5235 316.638 56.3106 312.488C50.8218 308.114 48.9389 301.255 51.3442 294.323C54.2547 285.907 58.9167 278.421 64.1485 271.3C81.1559 248.124 101.814 228.672 125.076 211.906C125.525 211.581 126.047 211.363 126.728 210.982L126.721 210.982Z" fill="#3DB54A"/>
<path d="M210.286 215.614C216.651 205.511 219.054 194.762 217.768 182.766C224.598 183.188 231.193 183.411 237.747 184.035C262.978 186.434 287.669 191.307 311.094 201.271C316.685 203.647 322.011 206.879 327.034 210.327C332.79 214.287 334.847 220.232 333.215 227.041C331.539 234.004 326.754 237.96 319.798 239.227C311.025 240.833 302.2 240.55 293.404 239.53C264.881 236.207 237.668 228.239 211.601 216.263C211.266 216.11 210.943 215.935 210.285 215.608L210.286 215.614Z" fill="#3DB54A"/>
<path d="M148.846 169.371C159.672 157.812 177.92 157.189 189.519 167.978C201.19 178.841 201.79 197.208 190.858 208.86C179.978 220.455 161.894 221.052 150.231 210.196C138.475 199.247 137.855 181.101 148.846 169.371Z" fill="#6ABD45"/>
<path d="M288.682 71.2593C299.121 77.7625 299.163 87.0517 295.523 94.5476C294.522 96.6141 293.434 98.6499 292.258 100.624C284.476 113.666 274.187 124.632 263.336 135.099C249.836 148.126 235.143 159.659 219.282 169.7C218.393 170.265 217.48 170.787 216.306 171.491C211.377 160.84 203.833 152.715 192.937 147.182C196.781 142.034 200.354 136.979 204.205 132.148C220.303 111.953 238.274 93.7088 259.806 79.2126C261.712 77.9279 263.705 76.76 265.715 75.6377C271.167 72.6023 276.725 69.8614 283.148 69.6322C284.994 70.1734 286.832 70.712 288.678 71.2533L288.682 71.2593Z" fill="#006838"/>
<path d="M133.015 161.981C126.164 171.671 123.069 182.127 123.706 194.138C118.634 193.613 113.703 193.231 108.813 192.568C88.9799 189.884 69.5597 185.463 50.7411 178.575C38.5622 174.119 26.6077 169.157 16.4774 160.769C11.3997 156.567 9.33679 151.131 10.7062 144.61C12.1521 137.742 17.4365 132.982 24.7115 132.02C33.5379 130.844 42.32 131.651 51.0315 133.131C79.375 137.929 106.029 147.661 131.451 160.926C131.943 161.181 132.372 161.55 133.018 161.988L133.015 161.981Z" fill="#006838"/>
<path d="M166.376 238.738C178.261 239.893 188.946 237.216 199.089 230.684C201.777 236.976 204.537 242.971 206.92 249.108C216.099 272.732 222.825 296.984 224.433 322.389C224.818 328.452 224.32 334.661 223.492 340.698C222.537 347.619 218.148 352.125 211.33 353.722C204.356 355.349 198.673 352.848 194.419 347.201C189.047 340.081 185.339 332.067 182.303 323.749C172.473 296.769 167.382 268.874 166.386 240.205C166.373 239.836 166.384 239.47 166.382 238.735L166.376 238.738Z" fill="#006838"/>
<path d="M180.13 163.08C195.317 167.567 204.064 183.595 199.627 198.803C195.156 214.107 179.012 222.885 163.694 218.345C148.449 213.826 139.8 197.933 144.268 182.638C148.777 167.219 164.715 158.522 180.13 163.08Z" fill="#006838"/>
</svg>
