<svg width="204" height="67" viewBox="0 0 204 67" fill="none" xmlns="http://www.w3.org/2000/svg">
<g id="Group 15">
<g id="Group">
<path id="Vector" d="M83.1338 63.5813C80.7279 64.9378 78.8931 63.9455 77.8082 62.4209C77.5088 62.0011 77.2249 61.5675 76.9625 61.123C75.2311 58.1848 74.1786 54.9765 73.2851 51.7111C72.1725 47.6478 71.4826 43.5105 71.2126 39.3037C71.1971 39.0676 71.1925 38.8315 71.1802 38.5244C73.8098 38.7004 76.2233 38.0892 78.4872 36.5383C79.0875 37.85 79.6986 39.0985 80.2357 40.3778C82.481 45.725 84.14 51.2311 84.677 57.0351C84.7248 57.549 84.7403 58.0675 84.7449 58.5845C84.7557 59.9857 84.6971 61.3761 84.0505 62.6662C83.7449 62.9718 83.4409 63.2758 83.1353 63.5813H83.1338Z" fill="#3DB54A"/>
<path id="Vector_2" d="M82.0256 23.1378C80.8543 20.7443 79.1274 19.0082 76.6923 17.84C77.3419 16.8971 77.9484 15.9666 78.6058 15.0746C81.2709 11.4558 84.2339 8.10554 87.6181 5.13952C89.8079 3.21978 92.0733 1.39881 94.8171 0.306221C96.1921 -0.241614 97.4853 -0.0626034 98.6226 0.909611C99.8202 1.93429 100.189 3.4883 99.5949 5.02532C98.8757 6.89105 97.7708 8.53455 96.5409 10.0916C92.5424 15.1595 87.7539 19.3632 82.4021 22.9434C82.2987 23.0128 82.1799 23.0576 82.024 23.1378H82.0256Z" fill="#3DB54A"/>
<path id="Vector_3" d="M63.3083 21.4433C61.8006 23.6609 61.1772 26.0544 61.3716 28.7565C59.8423 28.6084 58.3639 28.5065 56.8979 28.3152C51.2544 27.5791 45.7514 26.2921 40.5724 23.8723C39.3363 23.2952 38.1665 22.5282 37.0662 21.7149C35.8055 20.7813 35.3903 19.431 35.8101 17.9156C36.2406 16.3662 37.3456 15.5159 38.9165 15.286C40.898 14.9943 42.8764 15.127 44.8424 15.4249C51.2174 16.394 57.2621 18.3955 63.0182 21.2875C63.0923 21.3245 63.1633 21.3662 63.3083 21.4449V21.4433Z" fill="#3DB54A"/>
<path id="Vector_4" d="M76.7341 32.3029C74.2141 34.8122 70.1138 34.8091 67.5953 32.2968C65.0614 29.7675 65.0706 25.6409 67.6154 23.1116C70.1477 20.5947 74.211 20.6024 76.7434 23.1302C79.2958 25.6795 79.2927 29.7567 76.7341 32.3029Z" fill="#6ABD45"/>
</g>
<g id="Group_2">
<path id="Vector_5" d="M27.1294 57.8614H19.952L18.0863 51.8198H8.92123L7.01538 57.8614H0L9.40888 31.0977H17.7622L27.1294 57.8614ZM10.2191 47.0744H16.7885L13.5045 36.2474L10.2206 47.0744H10.2191Z" fill="#006838"/>
<path id="Vector_6" d="M42.4163 53.36C44.7682 53.36 46.5722 53.8538 47.8299 54.8399C49.0876 55.8276 49.7157 57.2396 49.7157 59.0776C49.7157 60.7535 49.2558 62.1454 48.3361 63.255C47.4163 64.363 46.1262 65.1948 44.4642 65.7488C42.8021 66.3028 40.8346 66.5791 38.5645 66.5791C34.8871 66.5791 32.239 66.1192 30.6155 65.1994C28.9936 64.2797 28.1819 63.0374 28.1819 61.4695C28.1819 60.3337 28.6418 59.414 29.5615 58.7118C30.4797 58.0081 32.0075 57.6316 34.1433 57.576L33.9812 58.2242C32.3315 58.0081 31.1016 57.522 30.2914 56.7643C29.4813 56.0081 29.0754 54.9804 29.0754 53.6825C29.0754 52.3847 29.5893 51.3307 30.6171 50.5205C31.6448 49.7104 33.009 49.2628 34.7127 49.1826L37.2266 50.3585H36.5784C35.5244 50.4125 34.7806 50.5884 34.3485 50.8863C33.9149 51.1841 33.7004 51.5483 33.7004 51.9804C33.7004 52.4403 33.8886 52.786 34.2683 53.0143C34.6463 53.2443 35.2142 53.36 35.972 53.36H42.4194H42.4163ZM38.8485 37.1796C40.9025 37.1796 42.6602 37.4512 44.12 37.9898C45.5799 38.5299 46.6956 39.3077 47.4657 40.3215C48.2357 41.3354 48.6215 42.587 48.6215 44.0731C48.6215 45.5592 48.2357 46.7767 47.4657 47.8045C46.6956 48.8323 45.5799 49.6085 44.12 50.1363C42.6602 50.6641 40.9025 50.9279 38.8485 50.9279C35.6309 50.9279 33.1911 50.3338 31.5291 49.144C29.8655 47.9542 29.0353 46.2644 29.0353 44.0746C29.0353 42.5885 29.4211 41.337 30.1911 40.3231C30.9612 39.3092 32.0769 38.533 33.5368 37.9913C34.9967 37.4512 36.7667 37.1811 38.8485 37.1811V37.1796ZM38.6046 62.1192C39.9025 62.1192 40.9765 62.0313 41.8284 61.8553C42.6802 61.6794 43.3222 61.4356 43.7543 61.1254C44.1864 60.8152 44.4024 60.4556 44.4024 60.0513C44.4024 59.647 44.2528 59.3276 43.9565 59.0992C43.6586 58.8692 43.1185 58.7535 42.3346 58.7535H35.0754C34.5615 58.7535 34.1494 58.8878 33.8377 59.1594C33.526 59.4294 33.3717 59.7674 33.3717 60.1732C33.3717 60.7951 33.8315 61.2735 34.7513 61.613C35.6695 61.951 36.955 62.1192 38.6046 62.1192ZM38.8485 41.1132C37.9565 41.1132 37.2327 41.3709 36.6787 41.8833C36.1247 42.3971 35.847 43.1271 35.847 44.0731C35.847 45.019 36.1232 45.7088 36.6787 46.2227C37.2327 46.7366 37.9565 46.9943 38.8485 46.9943C39.7404 46.9943 40.4303 46.7382 40.9981 46.2227C41.566 45.7104 41.85 44.9928 41.85 44.0731C41.85 43.1533 41.566 42.3971 40.9981 41.8833C40.4303 41.3709 39.7142 41.1132 38.8485 41.1132ZM49.3916 32.1503L49.9595 36.7737C49.7975 36.7197 49.6354 36.6858 49.4734 36.6719C49.3114 36.658 49.1493 36.6518 48.9873 36.6518C47.7975 36.6518 46.9117 36.9419 46.3314 37.5237C45.7497 38.1055 45.4595 38.8277 45.4595 39.6935L43.0259 38.8015C43.0259 37.6935 43.2281 36.6256 43.6339 35.5978C44.0398 34.57 44.6679 33.7321 45.5197 33.0824C46.3716 32.4343 47.4456 32.1086 48.7435 32.1086H49.0475C49.1694 32.1086 49.2836 32.1225 49.3931 32.1488L49.3916 32.1503Z" fill="#006838"/>
<path id="Vector_7" d="M52.475 57.8616V37.5855H58.5583L58.8422 41.9651C59.3545 40.4513 60.12 39.2754 61.1339 38.4374C62.1477 37.5994 63.4379 37.1797 65.0073 37.1797C65.5196 37.1797 65.961 37.2198 66.3252 37.3016C66.6894 37.3818 66.981 37.4914 67.1971 37.6257L66.5073 43.3031C66.2372 43.1951 65.8915 43.1071 65.4733 43.0392C65.0536 42.9729 64.5474 42.9374 63.9533 42.9374C63.1416 42.9374 62.3854 43.1133 61.6817 43.4651C60.978 43.817 60.4178 44.337 59.9996 45.0269C59.5799 45.7167 59.37 46.5886 59.37 47.6426V57.8616H52.4765H52.475Z" fill="#006838"/>
</g>
<g id="Group_3">
<path id="Vector_8" d="M90.3712 66.3786V37.5856H96.5764L96.9406 44.9251L96.1304 44.0732C96.3187 42.7229 96.7385 41.5331 97.3881 40.5038C98.0378 39.4776 98.8758 38.6659 99.9036 38.0717C100.93 37.4776 102.106 37.1797 103.431 37.1797C105.107 37.1797 106.567 37.5918 107.811 38.4174C109.053 39.2415 110.021 40.4313 110.711 41.9868C111.4 43.5424 111.745 45.4266 111.745 47.6426C111.745 49.8587 111.393 51.7661 110.691 53.3602C109.987 54.9558 109.008 56.1719 107.751 57.0098C106.493 57.8478 105.027 58.2675 103.351 58.2675C101.513 58.2675 100.025 57.7197 98.8897 56.6256C97.7539 55.5315 96.9977 54.1457 96.6181 52.4698L97.2678 51.496V66.3786H90.3728H90.3712ZM100.996 53.1997C102.186 53.1997 103.118 52.7599 103.794 51.8818C104.47 51.0037 104.808 49.6179 104.808 47.726C104.808 45.834 104.476 44.4482 103.814 43.5701C103.152 42.6921 102.226 42.2522 101.036 42.2522C100.28 42.2522 99.6165 42.4621 99.0502 42.8819C98.4823 43.3016 98.0425 43.9158 97.7323 44.726C97.4221 45.5362 97.2662 46.5377 97.2662 47.726C97.2662 48.9142 97.4082 49.8417 97.6921 50.6658C97.9761 51.4898 98.402 52.1195 98.9699 52.5515C99.5378 52.9836 100.214 53.2012 100.998 53.2012L100.996 53.1997Z" fill="#006838"/>
<path id="Vector_9" d="M125.653 58.2675C123.436 58.2675 121.51 57.8478 119.875 57.0098C118.24 56.1719 116.982 54.9759 116.104 53.4219C115.226 51.8663 114.786 49.9682 114.786 47.7244C114.786 45.4806 115.224 43.5809 116.104 42.0269C116.982 40.4729 118.226 39.2769 119.835 38.439C121.443 37.601 123.289 37.1813 125.371 37.1813C127.453 37.1813 129.317 37.5933 130.804 38.4189C132.291 39.243 133.434 40.3788 134.232 41.8248C135.03 43.2707 135.428 44.9266 135.428 46.7923C135.428 47.3062 135.414 47.8 135.388 48.2722C135.36 48.746 135.32 49.1441 135.266 49.4682H119.207V45.7383H132.264L128.939 47.0361C128.939 45.4142 128.647 44.1704 128.067 43.3047C127.485 42.4389 126.587 42.0069 125.371 42.0069C124.505 42.0069 123.769 42.2106 123.161 42.6149C122.553 43.0207 122.093 43.6488 121.781 44.5007C121.471 45.3525 121.315 46.4544 121.315 47.8062C121.315 49.158 121.491 50.2383 121.843 51.05C122.193 51.8617 122.695 52.4574 123.343 52.8339C123.993 53.2136 124.777 53.4018 125.695 53.4018C126.721 53.4018 127.539 53.1997 128.149 52.7938C128.757 52.3879 129.209 51.8201 129.507 51.0901L135.022 52.9558C134.642 54.0916 133.988 55.0577 133.056 55.8555C132.124 56.6534 131.022 57.2537 129.75 57.6595C128.479 58.0654 127.115 58.2675 125.655 58.2675H125.653Z" fill="#006838"/>
<path id="Vector_10" d="M146.091 28.99V50.9698C146.091 51.8617 146.24 52.4975 146.537 52.8756C146.835 53.2552 147.335 53.4435 148.037 53.4435C148.443 53.4435 148.781 53.4173 149.051 53.3617C149.321 53.3077 149.645 53.2275 150.025 53.1194L149.579 57.2552C149.093 57.553 148.457 57.7969 147.673 57.9851C146.889 58.1734 146.118 58.2691 145.363 58.2691C143.2 58.2691 141.632 57.7691 140.658 56.7691C139.684 55.7691 139.198 54.1333 139.198 51.8633V28.9915H146.091V28.99Z" fill="#006838"/>
<path id="Vector_11" d="M159.352 28.99V50.9698C159.352 51.8617 159.5 52.4975 159.798 52.8756C160.096 53.2552 160.596 53.4435 161.298 53.4435C161.704 53.4435 162.042 53.4173 162.312 53.3617C162.582 53.3077 162.906 53.2275 163.286 53.1194L162.84 57.2552C162.354 57.553 161.718 57.7969 160.934 57.9851C160.15 58.1734 159.379 58.2691 158.624 58.2691C156.46 58.2691 154.892 57.7691 153.919 56.7691C152.945 55.7691 152.459 54.1333 152.459 51.8633V28.9915H159.352V28.99Z" fill="#006838"/>
<path id="Vector_12" d="M175.653 58.2675C173.435 58.2675 171.509 57.8478 169.875 57.0098C168.239 56.1719 166.982 54.9759 166.104 53.4219C165.226 51.8663 164.786 49.9682 164.786 47.7244C164.786 45.4806 165.224 43.5809 166.104 42.0269C166.982 40.4729 168.226 39.2769 169.835 38.439C171.443 37.601 173.289 37.1813 175.371 37.1813C177.452 37.1813 179.317 37.5933 180.804 38.4189C182.29 39.243 183.434 40.3788 184.232 41.8248C185.029 43.2707 185.428 44.9266 185.428 46.7923C185.428 47.3062 185.414 47.8 185.387 48.2722C185.36 48.746 185.32 49.1441 185.266 49.4682H169.207V45.7383H182.264L178.938 47.0361C178.938 45.4142 178.647 44.1704 178.067 43.3047C177.485 42.4389 176.587 42.0069 175.371 42.0069C174.505 42.0069 173.769 42.2106 173.161 42.6149C172.553 43.0207 172.093 43.6488 171.781 44.5007C171.471 45.3525 171.315 46.4544 171.315 47.8062C171.315 49.158 171.491 50.2383 171.843 51.05C172.193 51.8617 172.695 52.4574 173.343 52.8339C173.992 53.2136 174.776 53.4018 175.695 53.4018C176.721 53.4018 177.539 53.1997 178.148 52.7938C178.756 52.3879 179.208 51.8201 179.506 51.0901L185.022 52.9558C184.642 54.0916 183.988 55.0577 183.056 55.8555C182.124 56.6534 181.022 57.2537 179.75 57.6595C178.479 58.0654 177.114 58.2675 175.655 58.2675H175.653Z" fill="#006838"/>
<path id="Vector_13" d="M189.278 57.8617V37.5856H195.361L195.645 41.9652C196.157 40.4513 196.923 39.2754 197.937 38.4375C198.951 37.5995 200.241 37.1797 201.81 37.1797C202.322 37.1797 202.762 37.2199 203.128 37.3017C203.494 37.3819 203.784 37.4915 204 37.6257L203.31 43.3032C203.039 43.1951 202.694 43.1072 202.275 43.0393C201.855 42.9729 201.349 42.9374 200.755 42.9374C199.944 42.9374 199.187 43.1133 198.483 43.4652C197.781 43.817 197.219 44.3371 196.801 45.0269C196.381 45.7167 196.173 46.5886 196.173 47.6426V57.8617H189.278Z" fill="#006838"/>
</g>
</g>
</svg>
