<svg width="575" height="407" viewBox="0 0 575 407" fill="none" xmlns="http://www.w3.org/2000/svg">
<path d="M672.408 212.719C684.176 231.986 676.593 247.259 664.447 256.557C661.103 259.122 657.641 261.566 654.085 263.836C630.575 278.819 604.666 288.332 578.244 296.563C545.367 306.812 511.764 313.628 477.474 317.034C475.55 317.228 473.622 317.333 471.117 317.521C471.804 295.989 466.123 276.446 452.807 258.393C463.352 253.115 473.377 247.767 483.675 243.014C526.718 223.146 571.226 208.022 618.488 201.979C622.673 201.442 626.904 201.168 631.127 200.982C642.571 200.494 653.946 200.577 664.67 205.491C667.254 207.9 669.824 210.297 672.407 212.706L672.408 212.719Z" fill="#3DB54A"/>
<path d="M342.319 233.311C323.099 243.563 309.409 258.166 300.56 278.393C292.672 273.354 284.897 268.665 277.422 263.549C247.099 242.809 218.883 219.559 193.687 192.758C177.379 175.416 161.857 157.429 152.148 135.325C147.28 124.248 148.374 113.633 155.992 104.064C164.021 93.9884 176.611 90.532 189.337 94.9472C204.785 100.29 218.526 108.848 231.598 118.451C274.14 149.67 309.848 187.591 340.623 230.291C341.22 231.116 341.619 232.074 342.319 233.324L342.319 233.311Z" fill="#3DB54A"/>
<path d="M333.815 386.704C352.362 398.388 372.093 402.799 394.113 400.439C393.339 412.975 392.928 425.082 391.783 437.113C387.38 483.427 378.435 528.751 360.145 571.751C355.783 582.013 349.851 591.788 343.521 601.009C336.253 611.576 325.34 615.352 312.84 612.355C300.06 609.28 292.798 600.496 290.472 587.727C287.524 571.623 288.043 555.423 289.916 539.277C296.014 486.921 310.641 436.968 332.625 389.118C332.906 388.503 333.226 387.911 333.828 386.703L333.815 386.704Z" fill="#3DB54A"/>
<path d="M418.7 273.924C439.918 293.795 441.062 327.293 421.256 348.585C401.316 370.007 367.603 371.109 346.214 351.041C324.929 331.071 323.833 297.874 343.761 276.465C363.859 254.886 397.168 253.748 418.7 273.924Z" fill="#6ABD45"/>
<path d="M598.796 530.608C586.858 549.771 569.807 549.848 556.047 543.166C552.254 541.33 548.517 539.333 544.893 537.173C520.953 522.888 500.824 504.002 481.611 484.084C457.698 459.303 436.528 432.332 418.096 403.218C417.06 401.585 416.101 399.909 414.808 397.755C434.359 388.706 449.274 374.859 459.431 354.858C468.88 361.913 478.159 368.471 487.027 375.542C524.098 405.091 557.587 438.08 584.197 477.604C586.555 481.102 588.699 484.761 590.759 488.45C596.331 498.458 601.362 508.661 601.783 520.45C600.789 523.84 599.8 527.213 598.807 530.602L598.796 530.608Z" fill="#006838"/>
<path d="M432.264 244.863C414.478 232.288 395.285 226.607 373.238 227.776C374.2 218.465 374.902 209.413 376.12 200.437C381.046 164.031 389.161 128.383 401.805 93.8391C409.985 71.4833 419.093 49.5393 434.49 30.9441C442.204 21.6233 452.181 17.8365 464.151 20.3503C476.758 23.0045 485.497 32.7046 487.262 46.0587C489.42 62.2606 487.939 78.3813 485.223 94.3723C476.415 146.4 458.551 195.328 434.203 241.992C433.733 242.895 433.056 243.682 432.253 244.869L432.264 244.863Z" fill="#006838"/>
<path d="M291.368 306.1C289.249 327.918 294.162 347.53 306.152 366.149C294.602 371.083 283.599 376.149 272.333 380.525C228.969 397.374 184.451 409.72 137.816 412.671C126.687 413.378 115.289 412.464 104.209 410.945C91.5046 409.192 83.2325 401.134 80.3012 388.619C77.3142 375.817 81.9054 365.386 92.2718 357.577C105.341 347.716 120.051 340.91 135.321 335.338C184.846 317.292 236.05 307.947 288.676 306.12C289.353 306.095 290.025 306.116 291.374 306.111L291.368 306.1Z" fill="#006838"/>
<path d="M430.248 331.347C422.011 359.226 392.589 375.282 364.674 367.137C336.582 358.931 320.468 329.296 328.803 301.177C337.098 273.194 366.272 257.317 394.347 265.518C422.651 273.796 438.616 303.051 430.248 331.347Z" fill="#006838"/>
</svg>
